<?xml version="1.0" standalone="no"?>
<!DOCTYPE svg PUBLIC "-//W3C//DTD SVG 20010904//EN"
 "http://www.w3.org/TR/2001/REC-SVG-20010904/DTD/svg10.dtd">
<svg version="1.0" xmlns="http://www.w3.org/2000/svg"
 width="391.000000pt" height="391.000000pt" viewBox="0 0 391.000000 391.000000"
 preserveAspectRatio="xMidYMid meet">

<g transform="translate(0.000000,391.000000) scale(0.100000,-0.100000)"
fill="#000000" stroke="none">
<path d="M1805 3896 c-5 -3 -46 -8 -89 -11 -73 -6 -82 -10 -117 -43 -36 -35
-39 -43 -56 -146 l-19 -109 -89 -29 c-50 -15 -154 -60 -232 -99 l-142 -71 -91
64 c-84 58 -95 63 -141 61 -37 -1 -59 -8 -87 -29 -70 -53 -268 -259 -320 -333
-73 -105 -72 -125 13 -246 36 -52 65 -96 65 -100 0 -3 -22 -52 -50 -109 -27
-57 -66 -155 -87 -218 -21 -62 -41 -116 -46 -119 -4 -3 -56 -14 -114 -23 -114
-19 -126 -24 -162 -68 -22 -27 -24 -39 -28 -201 -3 -96 0 -220 6 -281 9 -93
15 -114 38 -145 35 -47 35 -47 107 -60 33 -7 84 -16 112 -22 l51 -10 37 -112
c20 -62 61 -161 91 -221 l54 -110 -43 -60 c-100 -141 -106 -152 -106 -202 0
-43 5 -54 51 -108 78 -92 221 -228 310 -296 102 -76 137 -80 214 -22 28 21 71
52 97 70 l47 33 138 -68 c76 -38 173 -80 217 -93 88 -28 88 -27 106 -140 6
-41 13 -79 14 -85 12 -53 57 -94 119 -107 65 -13 362 -22 461 -13 80 6 92 10
123 39 31 28 35 40 53 141 11 60 23 112 28 115 4 4 43 17 87 29 103 29 243 84
321 126 l62 33 92 -64 c82 -56 99 -64 140 -64 43 0 53 6 151 84 111 89 282
264 312 318 19 36 22 89 7 118 -6 11 -35 53 -65 96 l-55 76 26 42 c46 73 113
223 150 333 20 60 40 111 45 114 6 3 47 11 92 18 88 14 107 21 145 56 20 19
26 40 38 126 14 110 18 319 7 432 -5 56 -11 73 -37 102 -29 33 -37 36 -141 54
-107 17 -110 19 -119 47 -46 157 -118 331 -172 415 -13 21 -24 43 -24 49 0 5
23 42 51 82 55 77 70 129 48 169 -43 81 -221 277 -340 375 -59 48 -71 54 -112
54 -41 0 -58 -8 -135 -61 l-88 -60 -85 45 c-107 57 -233 104 -379 143 -35 9
-35 10 -46 83 -20 126 -31 155 -71 186 l-37 28 -195 3 c-108 1 -200 1 -206 -1z
m340 -158 c4 -3 13 -50 22 -105 13 -85 19 -102 46 -131 18 -18 49 -37 72 -43
189 -50 395 -132 476 -190 49 -34 103 -22 197 46 42 30 81 55 87 55 24 -1 199
-182 292 -301 11 -14 4 -28 -42 -93 -48 -67 -55 -82 -55 -124 0 -36 8 -58 31
-92 50 -73 116 -223 155 -348 19 -64 40 -126 46 -137 22 -44 63 -64 156 -76
51 -7 97 -16 104 -20 10 -6 13 -55 13 -201 -1 -202 -5 -242 -29 -251 -8 -3
-52 -11 -97 -17 -64 -9 -90 -17 -113 -37 -17 -15 -30 -30 -28 -35 1 -4 -2 -8
-7 -8 -5 0 -12 -14 -16 -31 -27 -122 -103 -306 -180 -434 -36 -61 -41 -76 -37
-115 2 -25 14 -58 26 -75 13 -16 39 -54 60 -83 l37 -53 -30 -37 c-51 -65 -273
-272 -290 -272 -7 0 -69 41 -134 87 -73 53 -104 51 -231 -13 -130 -67 -207
-96 -335 -130 -134 -34 -146 -48 -169 -187 -10 -58 -21 -110 -25 -114 -21 -20
-422 -11 -444 10 -3 3 -12 54 -21 113 -20 136 -40 161 -152 194 -102 30 -228
84 -329 142 -113 65 -141 65 -230 -1 -36 -27 -81 -58 -100 -69 l-34 -21 -41
32 c-60 48 -212 194 -247 239 l-31 39 27 42 c16 23 47 67 70 97 66 87 66 109
-10 265 -58 118 -105 241 -134 350 -17 64 -57 88 -181 109 -57 9 -107 22 -111
28 -18 29 -25 416 -7 433 2 3 54 12 114 21 101 15 112 19 146 51 23 23 39 48
43 72 13 73 68 219 126 334 72 145 76 181 26 248 -18 24 -48 66 -66 92 l-33
48 38 47 c49 61 211 228 245 252 28 21 16 26 162 -77 65 -47 117 -46 194 4 83
53 223 116 338 153 143 46 160 64 180 199 9 58 18 107 20 110 17 17 424 26
440 9z"/>
<path d="M1822 3354 c-45 -31 -21 -93 41 -108 36 -8 39 -46 3 -46 -13 0 -26 7
-30 15 -3 8 -12 15 -21 15 -21 0 -19 -26 5 -50 41 -41 110 -13 110 45 0 35
-28 65 -61 65 -9 0 -22 7 -29 15 -10 12 -9 16 5 21 9 4 21 2 28 -5 14 -14 47
-15 47 -1 0 16 -39 50 -58 50 -10 0 -28 -7 -40 -16z"/>
<path d="M1970 3350 c0 -14 7 -20 21 -20 20 0 21 -4 17 -80 -2 -62 0 -81 11
-85 8 -3 15 -4 17 -3 1 2 6 37 10 78 7 86 10 92 32 88 9 -2 18 4 20 13 2 12
-8 18 -44 23 -74 10 -84 8 -84 -14z"/>
<path d="M1714 3294 c6 -50 5 -55 -9 -44 -8 7 -24 27 -36 46 -12 20 -29 34
-41 34 -22 0 -21 -6 4 -143 13 -72 34 -71 31 2 -1 28 -1 51 2 51 2 0 18 -20
36 -45 18 -25 40 -45 51 -45 22 0 22 0 2 111 -12 66 -21 89 -32 89 -12 0 -14
-10 -8 -56z"/>
<path d="M2137 3343 c-3 -5 -8 -39 -12 -78 -3 -38 -9 -80 -12 -92 -4 -18 -1
-23 15 -23 17 0 21 11 31 88 6 49 11 94 11 100 0 13 -26 17 -33 5z"/>
<path d="M2216 3331 c-9 -14 1 -31 20 -31 17 0 17 -18 -1 -94 -15 -62 -13 -76
9 -76 8 0 16 16 20 38 14 87 26 112 51 112 18 0 25 6 25 19 0 14 -10 20 -37
25 -21 3 -48 9 -59 12 -12 3 -25 1 -28 -5z"/>
<path d="M1533 3302 c-9 -5 -5 -31 14 -100 20 -73 29 -92 42 -89 19 4 20 0
-10 110 -24 89 -26 92 -46 79z"/>
<path d="M2364 3224 c-34 -94 -28 -124 29 -138 29 -8 41 -6 52 5 18 18 75 156
67 163 -17 17 -33 -1 -57 -64 -20 -53 -31 -70 -46 -70 -31 0 -33 26 -9 91 21
58 21 89 1 89 -5 0 -21 -34 -37 -76z"/>
<path d="M1321 3221 c-12 -8 -8 -25 24 -100 22 -50 42 -90 45 -89 3 2 26 11
53 22 43 17 57 33 41 49 -4 3 -22 0 -42 -9 -19 -8 -36 -13 -38 -12 -1 2 -17
36 -36 75 -26 57 -36 71 -47 64z"/>
<path d="M2557 3223 c-13 -13 -7 -32 13 -38 19 -6 18 -9 -15 -75 -39 -77 -42
-90 -20 -90 8 0 30 31 50 70 31 62 38 69 55 60 24 -13 27 -13 33 4 4 10 -12
25 -48 45 -60 34 -59 34 -68 24z"/>
<path d="M1184 3142 c-9 -5 -5 -35 14 -109 20 -84 28 -101 39 -92 7 6 13 22
13 34 0 13 10 29 23 38 19 12 26 13 41 2 17 -13 50 -10 44 5 -5 11 -146 130
-155 130 -4 0 -13 -4 -19 -8z m76 -84 c0 -8 -20 -22 -24 -17 -2 2 -7 14 -11
27 -6 22 -5 22 14 10 12 -7 21 -16 21 -20z"/>
<path d="M2671 3068 c-27 -40 -51 -77 -53 -82 -2 -5 19 -25 45 -44 37 -27 51
-32 60 -23 9 9 3 19 -27 44 -35 30 -37 34 -21 47 14 12 20 11 47 -4 23 -14 33
-15 41 -6 9 8 4 18 -21 39 -28 22 -31 29 -20 39 11 9 22 6 50 -13 31 -21 37
-22 42 -9 3 9 6 17 6 19 0 5 -87 65 -94 65 -3 0 -27 -33 -55 -72z"/>
<path d="M1795 3079 c-161 -21 -346 -92 -487 -186 -98 -64 -245 -207 -308
-299 -71 -103 -146 -264 -176 -381 -35 -133 -44 -357 -20 -487 108 -568 579
-966 1147 -966 315 0 599 118 825 344 170 169 279 377 325 616 19 98 17 329
-4 428 -115 541 -559 919 -1102 937 -71 2 -161 0 -200 -6z m344 -83 c9 -6 61
-160 180 -534 15 -47 18 -51 34 -40 15 12 9 34 -78 281 -52 148 -95 272 -95
277 0 14 134 -27 221 -67 44 -20 79 -41 79 -47 0 -6 -7 -90 -15 -186 -19 -233
-19 -242 3 -238 15 3 18 26 28 200 6 109 13 201 17 204 8 8 88 -46 152 -101
l40 -34 -73 -139 c-39 -76 -69 -142 -65 -146 19 -19 39 6 95 124 33 72 64 130
68 130 4 0 34 -32 66 -71 57 -70 58 -71 37 -87 -128 -103 -172 -146 -162 -158
6 -8 14 -14 18 -14 4 0 45 34 91 75 46 41 87 75 90 75 8 0 50 -75 50 -89 0 -7
-43 -33 -95 -58 -87 -42 -106 -58 -89 -76 4 -3 50 16 104 43 74 37 101 46 108
37 10 -14 53 -139 49 -143 -2 -2 -53 -6 -115 -10 -100 -6 -112 -9 -112 -26 0
-21 24 -22 155 -9 90 10 90 10 99 -56 3 -23 9 -63 12 -88 l6 -45 -140 49
c-118 42 -141 47 -146 34 -7 -17 0 -33 16 -33 5 0 69 -19 140 -42 l131 -41 -6
-96 c-12 -173 1 -172 -172 -16 -82 74 -154 134 -160 132 -27 -9 -9 -38 62 -97
68 -56 212 -178 236 -200 11 -10 -34 -143 -79 -233 -32 -63 -111 -187 -120
-187 -3 0 -94 284 -94 294 0 3 6 6 13 6 10 0 85 145 95 185 5 19 -31 51 -66
58 -52 10 -132 48 -142 67 -8 15 -18 17 -51 13 l-42 -6 23 31 c13 18 21 35 17
39 -4 3 -7 1 -7 -5 0 -8 -25 -11 -82 -10 l-83 2 78 3 c96 5 94 23 -3 23 -77 0
-91 -13 -59 -54 19 -24 19 -25 0 -31 -11 -3 -29 0 -39 6 -17 11 -23 9 -43 -13
-26 -28 -134 -78 -168 -78 -37 0 -35 -28 6 -108 l40 -77 -92 -195 c-84 -175
-103 -223 -76 -194 4 5 48 87 96 182 l89 172 108 0 c105 0 108 -1 108 -22 0
-12 -7 -153 -16 -313 -11 -192 -20 -292 -27 -297 -28 -18 -169 -59 -247 -73
-47 -8 -132 -15 -189 -15 -94 0 -103 2 -97 18 5 15 4 15 -6 1 -9 -14 -19 -14
-80 -4 -37 7 -70 14 -72 16 -6 6 -116 434 -116 451 0 9 155 147 345 308 190
161 345 296 345 301 0 44 -95 -30 -406 -316 -187 -171 -282 -255 -291 -255 -9
0 -59 188 -52 194 2 2 23 13 47 25 l43 22 28 -21 c16 -11 33 -20 38 -20 15 0
112 90 118 110 4 13 -2 31 -15 50 -20 28 -20 30 -3 45 10 8 113 60 228 115
116 54 210 104 209 109 -1 6 -2 16 -2 22 -1 6 -90 -35 -198 -91 -108 -55 -198
-99 -200 -97 -2 1 2 20 8 40 10 31 16 37 39 37 37 0 43 12 46 100 1 41 6 76
10 77 4 1 65 5 136 8 116 6 127 9 127 26 0 23 -1 23 -200 5 -80 -7 -148 -11
-152 -9 -5 2 -8 10 -8 17 0 7 -13 39 -29 70 l-28 57 20 26 c17 21 18 29 9 44
-9 14 -9 19 -1 19 6 0 93 -29 192 -65 100 -36 187 -63 194 -61 30 12 11 34
-44 50 -152 43 -397 128 -423 146 -17 12 -38 19 -48 16 -10 -4 -59 6 -108 22
-68 21 -90 33 -92 48 -6 32 -17 36 -92 35 -48 0 -94 7 -137 20 -35 12 -66 19
-69 17 -2 -3 13 -10 35 -16 l39 -12 -34 -34 c-21 -21 -34 -44 -34 -60 0 -16
-9 -31 -25 -42 -23 -15 -26 -15 -54 5 -16 12 -33 21 -37 21 -5 0 -30 -21 -57
-47 -26 -27 -44 -39 -40 -28 66 157 202 330 342 435 36 28 104 70 151 94 l85
44 338 -304 c186 -167 341 -304 345 -304 4 0 14 5 22 10 12 8 9 15 -20 37 -19
15 -53 44 -75 63 -22 20 -67 58 -100 85 -33 27 -62 52 -65 55 -3 3 -97 84
-210 180 -113 95 -206 177 -208 181 -2 4 26 17 61 28 56 17 89 24 207 45 36 7
297 -1 309 -8z m-695 -525 c5 -33 10 -39 36 -45 17 -3 55 -17 85 -31 l55 -26
31 21 30 22 50 -51 50 -52 -21 -30 c-22 -29 -22 -30 -2 -62 10 -19 27 -56 36
-83 15 -45 20 -52 54 -60 42 -10 49 -32 37 -110 -5 -39 -8 -42 -41 -46 -34 -4
-36 -3 -86 81 -136 228 -206 294 -336 316 -39 6 -41 8 -35 35 8 44 -5 96 -33
130 l-26 30 55 0 54 0 7 -39z m-138 14 c48 -33 68 -121 38 -163 -9 -13 -14
-28 -11 -35 2 -7 35 -18 73 -25 79 -15 83 -17 184 -104 59 -51 88 -87 138
-168 57 -95 74 -146 47 -145 -5 1 -44 42 -85 93 -60 74 -91 102 -157 143 -46
28 -87 48 -93 44 -6 -4 -10 -74 -10 -187 l0 -180 115 -445 c63 -245 115 -447
115 -448 0 -2 -12 0 -27 4 -29 8 -20 -15 -208 538 -55 161 -104 294 -110 297
-6 2 -44 -17 -84 -43 l-73 -46 -65 -129 -65 -129 -24 42 c-13 24 -24 48 -24
55 0 6 27 67 60 136 53 113 66 131 130 191 l71 65 -13 145 -13 144 -30 0 c-16
-1 -47 -4 -67 -7 -36 -6 -37 -6 -97 72 -65 84 -68 89 -49 108 10 10 26 -1 74
-49 l62 -61 86 33 c90 34 104 51 60 71 -48 22 -70 124 -38 173 19 29 58 33 90
10z m-164 -111 c22 14 24 13 49 -41 l26 -55 -51 -23 -51 -23 -60 59 -59 58 29
31 28 30 34 -25 c30 -24 34 -25 55 -11z m478 26 c0 -5 -2 -10 -4 -10 -3 0 -8
5 -11 10 -3 6 -1 10 4 10 6 0 11 -4 11 -10z m-674 -155 c15 -24 15 -29 -6 -85
-17 -44 -27 -60 -41 -60 -16 0 -18 5 -13 28 12 56 37 142 40 142 2 0 11 -11
20 -25z m625 -22 l24 -28 -30 25 c-16 14 -32 26 -34 28 -2 1 0 2 6 2 5 0 20
-12 34 -27z m-551 -75 c33 -41 33 -42 34 -147 1 -100 3 -109 33 -163 29 -50
30 -58 17 -69 -9 -7 -31 -44 -51 -82 l-34 -69 -34 32 -34 33 25 32 c26 34 30
55 14 71 -6 6 -19 35 -29 65 -19 54 -24 58 -88 75 -9 2 -13 26 -13 74 l0 70
40 6 c33 5 41 12 47 33 6 26 31 81 37 81 1 0 18 -19 36 -42z m170 -74 c0 -21
-5 -24 -37 -26 l-38 -1 35 -4 c43 -6 46 -10 48 -76 1 -28 5 -63 7 -77 4 -20
-2 -33 -30 -60 -34 -33 -35 -33 -50 -14 -36 47 -57 127 -52 197 3 38 7 70 9
72 6 6 93 22 101 18 4 -2 7 -15 7 -29z m362 -41 c24 -15 61 -49 82 -75 l37
-48 -19 -43 c-11 -24 -33 -59 -50 -78 -35 -40 -117 -88 -129 -75 -4 4 -10 80
-11 168 -3 126 -1 163 10 169 21 14 34 11 80 -18z m-638 -139 c9 -3 16 -13 16
-21 0 -8 10 -37 22 -65 16 -37 19 -55 11 -67 -5 -9 -16 -26 -24 -38 -12 -21
-11 -26 24 -61 20 -21 37 -43 37 -50 0 -7 -10 -32 -22 -55 l-21 -42 -19 45
c-28 64 -57 192 -64 283 -7 81 -3 88 40 71z m846 -102 c0 -7 -5 -21 -12 -31
-9 -15 -7 -24 10 -46 26 -33 20 -48 -40 -98 l-42 -35 -27 19 c-34 24 -41 24
-90 -2 -23 -11 -43 -18 -46 -16 -2 3 -11 25 -18 50 l-14 46 53 30 c62 34 120
99 137 150 l12 35 38 -44 c22 -25 39 -51 39 -58z m810 54 c36 -13 85 -33 110
-44 25 -11 61 -23 79 -27 19 -4 30 -12 28 -18 -3 -7 -20 -45 -38 -84 l-32 -73
-100 0 c-108 0 -137 -11 -137 -54 0 -12 -5 -28 -10 -36 -7 -11 -10 -7 -10 19
0 21 -8 43 -21 57 -20 22 -27 22 -123 17 l-101 -5 -41 80 -41 80 25 7 c13 3
66 24 117 46 51 21 104 40 119 41 14 1 26 6 26 10 0 16 88 7 150 -16z m-1235
-270 c16 -47 27 -87 24 -91 -3 -3 -20 -2 -37 1 -26 5 -32 12 -37 44 -6 33 -11
39 -46 49 -21 6 -39 15 -39 19 0 9 81 62 95 62 6 0 24 -38 40 -84z m-75 -35
c0 -5 -10 -13 -22 -19 l-23 -11 25 2 c19 2 26 -3 28 -20 3 -22 17 -27 92 -36
10 -1 28 -40 51 -107 l36 -105 -41 -44 -41 -45 38 32 c21 18 41 32 45 32 9 0
106 -289 99 -296 -8 -8 -138 56 -207 104 -78 53 -184 155 -247 235 l-46 59 63
128 63 128 44 -15 c23 -8 43 -18 43 -22z m1426 -21 c6 -19 33 -93 58 -163 l46
-129 -58 -60 c-31 -33 -84 -80 -116 -105 -63 -47 -195 -127 -201 -121 -1 1 1
44 5 93 4 50 14 165 21 257 12 161 13 167 31 152 20 -19 22 -16 33 51 10 61
19 66 98 63 l70 -3 13 -35z"/>
<path d="M2480 2403 c0 -4 5 -15 10 -23 8 -13 10 -13 10 2 0 9 -4 20 -10 23
-5 3 -10 3 -10 -2z"/>
<path d="M2502 2310 c0 -14 2 -19 5 -12 2 6 2 18 0 25 -3 6 -5 1 -5 -13z"/>
<path d="M2580 2299 c0 -5 5 -7 10 -4 6 3 10 8 10 11 0 2 -4 4 -10 4 -5 0 -10
-5 -10 -11z"/>
<path d="M2367 2243 c-10 -9 -9 -51 1 -57 4 -2 9 11 10 30 3 35 1 39 -11 27z"/>
<path d="M2592 2200 c0 -14 2 -19 5 -12 2 6 2 18 0 25 -3 6 -5 1 -5 -13z"/>
<path d="M2545 2190 c3 -14 8 -40 12 -57 8 -45 23 -42 22 5 0 20 -3 30 -6 22
-4 -10 -11 -4 -20 20 -7 19 -11 24 -8 10z"/>
<path d="M2411 2184 c0 -11 3 -14 6 -6 3 7 2 16 -1 19 -3 4 -6 -2 -5 -13z"/>
<path d="M2511 2148 c0 -14 2 -33 5 -42 10 -27 24 -18 23 17 0 26 -2 28 -9 12
-7 -18 -8 -16 -12 10 -5 29 -5 29 -7 3z"/>
<path d="M2351 2131 c-1 -44 31 -109 70 -140 16 -13 31 -22 33 -20 2 2 6 29 9
59 l6 55 -19 -42 c-18 -41 -36 -61 -23 -26 5 12 2 15 -10 10 -23 -9 -46 29
-57 90 -7 42 -8 44 -9 14z"/>
<path d="M2601 2141 c-3 -52 -23 -97 -52 -114 -17 -9 -27 -12 -24 -7 3 6 1 10
-4 10 -6 0 -10 3 -10 8 3 14 -23 72 -32 72 -14 0 -11 -18 4 -23 8 -2 12 -23
11 -60 -1 -32 2 -57 6 -57 9 0 61 40 77 60 18 21 35 87 30 113 -4 21 -4 21 -6
-2z"/>
<path d="M2387 2110 c7 -41 23 -48 23 -9 0 23 -3 30 -9 20 -8 -12 -10 -12 -14
0 -2 8 -2 3 0 -11z"/>
<path d="M1803 1143 c-29 -20 -31 -47 -3 -38 18 6 20 2 20 -34 0 -34 3 -41 20
-41 18 0 20 7 20 65 0 71 -11 81 -57 48z"/>
<path d="M1942 1148 c-29 -29 2 -84 40 -72 15 4 19 2 16 -7 -3 -9 -16 -13 -32
-11 -20 3 -27 0 -24 -10 3 -7 18 -14 35 -16 54 -5 79 43 51 103 -8 19 -19 25
-43 25 -17 0 -36 -5 -43 -12z m53 -28 c0 -7 -6 -15 -12 -17 -8 -3 -13 4 -13
17 0 13 5 20 13 18 6 -3 12 -11 12 -18z"/>
<path d="M2090 1145 c0 -10 10 -15 30 -15 l30 0 -20 -37 c-25 -47 -25 -63 0
-63 12 0 20 7 20 18 0 9 9 34 20 55 11 20 20 41 20 47 0 5 -22 10 -50 10 -38
0 -50 -4 -50 -15z"/>
<path d="M2262 1147 c-38 -45 -15 -117 36 -117 39 0 52 17 52 65 0 23 -5 46
-12 53 -16 16 -63 15 -76 -1z m48 -46 c0 -42 -14 -62 -24 -35 -8 21 -8 59 1
67 15 16 23 5 23 -32z"/>
<path d="M1889 949 c-16 -34 -29 -63 -27 -65 2 -2 18 26 36 61 17 36 30 65 27
65 -3 0 -19 -27 -36 -61z"/>
<path d="M1067 3063 c-12 -12 -7 -23 30 -64 42 -46 36 -47 -51 -8 -29 13 -44
15 -53 7 -10 -8 -7 -18 16 -47 73 -91 99 -116 110 -105 9 8 3 21 -19 49 -16
21 -30 39 -30 41 0 5 65 -18 75 -27 12 -12 52 -12 59 0 5 7 -118 161 -128 161
-1 0 -6 -3 -9 -7z"/>
<path d="M2883 2940 c-41 -24 -66 -64 -66 -101 0 -95 139 -89 180 8 17 41 11
66 -24 93 -32 25 -49 25 -90 0z m75 -32 c21 -21 13 -45 -24 -78 -33 -29 -38
-30 -57 -17 -29 20 -24 56 11 84 30 26 52 29 70 11z"/>
<path d="M882 2887 c-34 -36 -28 -73 17 -118 45 -46 97 -53 131 -19 33 33 26
76 -19 121 -47 47 -94 53 -129 16z m114 -49 c28 -34 27 -45 -2 -65 -18 -12
-25 -10 -55 10 -38 26 -50 64 -24 83 22 17 51 7 81 -28z"/>
<path d="M2997 2774 c-42 -31 -77 -62 -77 -70 0 -19 20 -17 50 6 25 19 25 19
52 -7 23 -22 28 -24 33 -10 4 8 -1 26 -10 40 -15 23 -14 25 2 31 12 5 25 -1
40 -19 16 -18 27 -24 38 -18 13 8 10 16 -18 56 l-33 46 -77 -55z"/>
<path d="M787 2766 c-3 -8 22 -33 71 -67 92 -65 88 -63 95 -45 4 10 -18 33
-68 70 -79 59 -90 64 -98 42z"/>
<path d="M719 2664 c-24 -43 -29 -58 -20 -67 9 -9 16 -7 29 10 l17 22 68 -41
c56 -34 70 -39 77 -27 11 17 9 20 -65 62 -33 19 -59 38 -58 43 1 5 4 16 8 25
4 10 0 19 -9 22 -11 4 -24 -10 -47 -49z"/>
<path d="M3175 2631 c-3 -6 -2 -19 4 -29 8 -15 -1 -23 -65 -57 -63 -34 -72
-41 -60 -53 12 -12 23 -9 80 23 l66 37 18 -21 c12 -14 21 -18 31 -12 12 7 9
19 -16 62 -31 54 -46 68 -58 50z"/>
<path d="M646 2525 c-3 -9 -6 -18 -6 -20 0 -2 34 -34 76 -71 59 -53 77 -65 84
-54 6 10 3 21 -7 32 -23 26 -4 65 34 70 46 5 35 32 -17 39 -145 20 -157 21
-164 4z m107 -51 c-6 -17 -15 -18 -31 -2 -19 19 -14 26 12 21 16 -3 23 -10 19
-19z"/>
<path d="M3173 2438 l-81 -30 20 -59 c15 -44 24 -59 35 -55 8 3 16 6 18 6 2 0
-3 19 -11 42 -11 33 -12 43 -2 50 24 15 36 8 48 -27 11 -32 28 -44 42 -29 3 3
1 21 -5 40 -9 29 -8 37 3 44 16 10 39 -21 40 -52 0 -18 25 -25 34 -10 10 17
-27 112 -43 111 -9 -1 -53 -15 -98 -31z"/>
<path d="M590 2376 c0 -10 15 -19 45 -27 25 -6 45 -15 45 -19 0 -4 -26 -12
-57 -16 -48 -8 -58 -12 -58 -29 0 -16 15 -23 84 -43 46 -12 90 -21 98 -18 26
10 12 24 -37 37 -27 7 -47 16 -44 20 3 5 27 11 55 15 33 4 53 13 59 25 9 16 2
20 -58 38 -110 33 -132 36 -132 17z"/>
<path d="M3199 2267 c-44 -30 -53 -86 -17 -111 32 -22 58 -21 58 4 0 13 -7 20
-19 20 -23 0 -35 28 -20 46 17 21 79 35 100 23 20 -10 25 -39 9 -55 -5 -5 -6
-15 0 -24 13 -21 50 15 50 50 0 67 -91 94 -161 47z"/>
<path d="M530 2118 c0 -18 29 -28 80 -28 43 0 31 -12 -37 -36 -36 -12 -53 -23
-53 -35 0 -14 14 -18 83 -24 45 -3 90 -9 100 -11 12 -4 17 0 17 15 0 18 -6 21
-44 21 -63 0 -64 14 -3 37 38 15 53 26 55 42 3 18 -2 21 -30 21 -18 0 -63 3
-100 7 -57 5 -68 3 -68 -9z"/>
<path d="M3305 2103 c-95 -8 -125 -14 -125 -29 0 -10 13 -14 45 -14 43 0 45
-1 45 -30 0 -28 -2 -30 -40 -30 -34 0 -40 -3 -40 -21 0 -20 4 -20 78 -14 104
8 122 13 122 30 0 11 -11 15 -40 15 -38 0 -40 2 -40 30 0 28 3 30 35 30 28 0
35 4 35 20 0 13 -6 19 -17 18 -10 -1 -36 -3 -58 -5z"/>
<path d="M563 1940 c-44 -19 -57 -81 -24 -121 16 -21 28 -24 81 -24 53 0 65 3
81 24 25 31 25 83 -1 106 -23 20 -104 30 -137 15z m111 -46 c20 -19 20 -23 -1
-46 -30 -33 -123 -16 -123 22 0 20 34 40 70 40 22 0 45 -7 54 -16z"/>
<path d="M3190 1908 c0 -18 28 -27 80 -29 34 0 33 -1 -27 -29 -76 -35 -81 -55
-17 -64 86 -11 154 -8 154 9 0 11 -11 15 -37 15 -67 0 -70 15 -9 40 40 16 56
28 56 41 0 16 -8 19 -47 19 -27 0 -72 3 -100 6 -44 6 -53 4 -53 -8z"/>
<path d="M696 1727 l6 -44 -76 -12 c-65 -11 -76 -15 -76 -32 0 -15 5 -19 18
-15 9 2 52 10 95 17 43 6 79 15 80 18 2 3 -1 30 -6 59 -7 41 -12 52 -28 52
-16 0 -18 -5 -13 -43z"/>
<path d="M3185 1715 c-49 -49 -22 -114 56 -135 65 -18 119 10 119 61 0 43 -10
58 -51 79 -52 27 -94 26 -124 -5z m119 -36 c30 -24 32 -32 9 -54 -18 -19 -73
-15 -99 6 -14 12 -19 51 -7 62 14 14 71 6 97 -14z"/>
<path d="M680 1590 c-11 -11 -30 -20 -43 -20 -13 0 -32 -6 -42 -14 -18 -13
-19 -18 -7 -63 7 -26 16 -51 20 -55 5 -5 180 46 188 55 1 1 -5 22 -13 47 -23
70 -63 90 -103 50z m60 -39 c15 -28 13 -38 -10 -44 -23 -6 -45 25 -36 49 8 20
34 17 46 -5z m-80 -31 c12 -23 6 -40 -15 -40 -13 0 -25 21 -25 46 0 21 28 17
40 -6z"/>
<path d="M3118 1518 c-11 -38 -12 -55 -4 -60 19 -13 24 -9 31 23 4 17 12 32
19 35 6 2 38 -5 70 -16 72 -24 88 -25 84 -3 -2 11 -28 24 -78 40 -41 13 -82
26 -91 28 -13 4 -20 -7 -31 -47z"/>
<path d="M709 1406 c-71 -38 -76 -43 -66 -63 12 -27 11 -27 70 -9 26 8 47 11
47 8 0 -4 -18 -22 -41 -42 -37 -32 -39 -37 -26 -54 14 -19 17 -19 101 25 47
24 86 47 86 51 0 18 -23 17 -61 -2 -55 -28 -60 -19 -10 16 61 43 54 71 -13 53
-51 -14 -57 -4 -12 17 37 18 49 45 19 43 -10 -1 -52 -20 -94 -43z"/>
<path d="M3061 1384 c-36 -46 -25 -88 33 -123 67 -42 146 -17 146 47 0 37 -22
66 -64 86 -51 24 -91 21 -115 -10z m109 -29 c37 -19 43 -70 10 -80 -46 -15
-117 49 -95 84 9 16 51 13 85 -4z"/>
<path d="M818 1235 c-62 -42 -76 -95 -35 -132 41 -39 85 -34 137 15 47 46 51
77 15 116 -31 33 -69 34 -117 1z m92 -30 c19 -23 -3 -63 -42 -80 -63 -26 -92
23 -42 70 31 28 66 32 84 10z"/>
<path d="M2983 1234 c-59 -29 -61 -99 -5 -128 29 -15 31 -14 46 9 9 13 16 29
16 34 0 17 -25 18 -37 2 -10 -14 -12 -14 -19 3 -19 49 48 67 92 25 36 -34 26
-79 -17 -79 -26 0 -32 -28 -7 -36 38 -12 88 34 88 81 0 22 -52 77 -87 91 -39
17 -31 17 -70 -2z"/>
<path d="M980 1095 c-10 -36 -16 -44 -30 -40 -22 7 -70 -31 -70 -56 0 -10 16
-37 36 -59 l36 -40 73 68 c54 49 71 70 63 79 -8 10 -18 7 -43 -13 -40 -30 -47
-22 -33 34 19 76 -11 101 -32 27z m-6 -93 c15 -18 15 -20 -3 -36 -19 -17 -20
-17 -37 9 -15 23 -15 28 -3 36 20 12 24 11 43 -9z"/>
<path d="M2844 1079 c-3 -6 7 -25 24 -42 27 -28 43 -60 66 -131 6 -18 8 -18
22 -4 14 14 14 19 0 52 -14 33 -14 36 2 35 9 0 26 -4 37 -8 20 -8 45 3 45 20
0 4 -26 13 -57 20 -34 8 -69 24 -89 41 -35 31 -40 33 -50 17z"/>
<path d="M1108 939 c-36 -21 -16 -79 27 -79 43 0 59 44 27 73 -21 19 -30 20
-54 6z"/>
<path d="M2760 925 c-28 -34 12 -85 54 -69 22 8 31 50 16 69 -16 19 -54 19
-70 0z"/>
<path d="M2681 834 l22 -36 -41 23 c-22 13 -43 21 -47 18 -9 -9 56 -110 66
-103 5 3 2 15 -6 27 -24 34 -18 40 19 17 19 -11 37 -17 40 -12 6 10 -53 102
-66 102 -5 0 0 -16 13 -36z"/>
<path d="M1211 821 c-24 -22 -39 -41 -33 -45 6 -3 13 -2 17 4 8 14 47 -7 43
-23 -2 -7 1 -13 7 -15 7 -2 33 78 35 111 1 17 -28 4 -69 -32z m39 -16 c0 -8
-4 -15 -10 -15 -5 0 -10 7 -10 15 0 8 5 15 10 15 6 0 10 -7 10 -15z"/>
<path d="M1306 796 c-50 -81 -48 -74 -24 -91 33 -22 59 -19 29 4 l-24 18 23
42 c26 44 22 69 -4 27z"/>
<path d="M2552 798 c-20 -20 -14 -63 13 -88 51 -48 102 18 59 78 -17 24 -53
29 -72 10z m58 -22 c14 -17 10 -58 -6 -63 -18 -6 -44 26 -44 53 0 28 30 33 50
10z"/>
<path d="M1365 740 c-8 -16 -15 -38 -15 -49 0 -24 31 -44 54 -35 23 9 19 26
-4 19 -26 -8 -37 17 -22 51 13 26 52 34 52 9 0 -8 5 -15 10 -15 11 0 13 11 4
34 -4 10 -18 16 -35 16 -21 0 -32 -7 -44 -30z"/>
<path d="M2458 754 c-3 -5 6 -33 19 -61 l24 -53 30 15 c35 19 38 29 4 21 -21
-5 -27 -1 -48 40 -13 26 -26 43 -29 38z"/>
<path d="M2385 728 c-11 -6 -21 -12 -23 -13 -2 -2 37 -96 44 -104 2 -2 17 2
34 9 34 14 42 53 14 64 -9 4 -14 9 -11 13 9 9 -12 43 -26 43 -7 0 -21 -6 -32
-12z m42 -25 c4 -11 -26 -27 -35 -19 -2 3 -2 12 2 21 6 18 27 16 33 -2z m23
-47 c0 -8 -7 -17 -16 -20 -23 -9 -24 -8 -24 14 0 13 7 20 20 20 11 0 20 -6 20
-14z"/>
<path d="M1463 686 c-35 -45 -43 -67 -19 -47 17 14 61 -3 51 -19 -3 -5 -1 -11
4 -14 11 -7 21 28 21 82 0 54 -16 54 -57 -2z m33 -23 c-11 -11 -17 4 -9 23 7
18 8 18 11 1 2 -10 1 -21 -2 -24z"/>
<path d="M1556 698 c-3 -7 -9 -28 -15 -47 -21 -66 -7 -83 15 -18 l11 32 8 -43
c9 -53 25 -50 42 9 17 56 10 75 -9 29 l-15 -35 -7 43 c-7 40 -23 55 -30 30z"/>
<path d="M2324 676 c8 -44 -7 -48 -24 -6 -13 31 -27 39 -35 18 -7 -18 20 -101
33 -106 9 -3 9 5 1 28 -15 41 -5 49 11 10 17 -40 28 -38 33 8 l3 37 8 -32 c5
-18 12 -33 17 -33 22 0 -13 104 -36 108 -15 3 -17 -1 -11 -32z"/>
<path d="M1653 676 c16 -12 17 -20 8 -53 -13 -47 -13 -53 -2 -53 5 0 12 19 16
41 5 29 13 43 26 46 39 10 6 33 -46 33 -19 -1 -19 -1 -2 -14z"/>
<path d="M2182 668 c-15 -15 -16 -63 -2 -89 12 -21 50 -25 68 -7 17 17 15 74
-4 92 -18 19 -45 21 -62 4z m56 -50 c3 -33 0 -38 -18 -38 -13 0 -24 9 -30 25
-13 34 -2 57 24 53 16 -2 22 -11 24 -40z"/>
<path d="M1722 615 c-17 -30 -26 -58 -21 -61 5 -3 12 2 15 10 8 21 21 20 41
-4 21 -25 32 -26 28 -2 -2 9 -7 38 -10 65 -3 26 -10 47 -15 47 -5 0 -22 -25
-38 -55z m34 -22 c-11 -11 -19 6 -11 24 8 17 8 17 12 0 3 -10 2 -21 -1 -24z"/>
<path d="M1810 647 c0 -8 -3 -35 -6 -61 -5 -31 -3 -46 5 -46 6 0 11 11 11 25
0 35 16 31 36 -7 10 -18 19 -28 21 -21 3 7 0 20 -6 30 -7 13 -5 23 7 36 12 14
14 22 6 35 -14 22 -74 29 -74 9z m53 -22 c1 -5 -6 -11 -15 -13 -11 -2 -18 3
-18 13 0 17 30 18 33 0z"/>
<path d="M2070 647 c0 -8 3 -35 6 -61 7 -48 24 -64 24 -21 0 32 13 32 34 0 9
-14 21 -23 27 -19 6 4 5 11 -3 22 -7 8 -13 31 -13 51 0 34 -2 36 -37 39 -28 2
-38 -1 -38 -11z m60 -22 c0 -8 -9 -15 -20 -15 -11 0 -20 7 -20 15 0 8 9 15 20
15 11 0 20 -7 20 -15z"/>
<path d="M1916 603 c-20 -59 -21 -86 -2 -60 17 22 42 22 55 0 18 -33 20 -8 4
50 -9 31 -22 57 -29 57 -7 0 -19 -21 -28 -47z m30 -20 c-11 -11 -17 4 -9 23 7
18 8 18 11 1 2 -10 1 -21 -2 -24z"/>
<path d="M2006 552 c-2 -4 -1 -14 5 -22 7 -12 9 -10 9 8 0 23 -5 28 -14 14z"/>
</g>
</svg>
