<svg height="480pt" viewBox="0 0 479 480" width="480pt" xmlns="http://www.w3.org/2000/svg"><path d="m471.234375 208h-39.359375v-48h39.359375c2.863281.003906 5.507813-1.515625 6.941406-3.992188 1.433594-2.476562 1.433594-5.53125.003907-8.007812-12.101563-20.90625-33.898438-34.332031-58.015626-35.726562l-15.488281-26.867188c-4.046875-7.0625-12.769531-9.9375-20.222656-6.671875l-41.160156 17.808594 17.78125-40.984375c3.367187-7.464844.53125-16.261719-6.558594-20.359375l-29.328125-16.871094c-7.035156-4.027344-15.96875-2.160156-20.800781 4.351563l-26.800781 36.199218-4.964844-44.695312c-.953125-8.085938-7.804688-14.17968775-15.945313-14.183594h-34.558593c-8.136719-.00390625-14.988282 6.074219-15.953126 14.152344l-4.753906 44.488281-.191406-.242187-26.496094-35.65625c-4.730468-6.640626-13.746094-8.585938-20.800781-4.484376l-29.007813 16.726563c-7.113281 4-10.039062 12.738281-6.773437 20.214844l17.734375 40.839843-40.800781-17.773437c-7.40625-3.25-16.070313-.40625-20.109375 6.597656l-15.839844 27.457031c-23.941406 1.535157-45.53125 14.921876-57.554688 35.679688-1.429687 2.476562-1.425781 5.53125.003907 8.007812 1.433593 2.476563 4.082031 3.996094 6.941406 3.992188h39.359375v48h-39.359375c-2.859375-.003906-5.507813 1.515625-6.941406 3.992188-1.429688 2.476562-1.433594 5.53125-.003907 8.007812 17.558594 30.558594 54.707032 43.847656 87.664063 31.359375-.855469 4.132813-1.3125 8.339844-1.359375 12.5625 0 .652344.082031 1.300781.242188 1.933594l16.0625 64.320312c8.144531 23.566407 21.746093 44.871094 39.695312 62.175781v47.648438c.027344 22.082031 17.921875 39.972656 40 40h112c22.082031-.027344 39.972656-17.917969 40-40v-45.054688c22.3125-18.707031 38.664062-43.53125 47.039062-71.417968.113282-.359375.203126-.730469.265626-1.101563l11.617187-69.625c6.824219 2.121094 13.929687 3.199219 21.078125 3.199219 25.707031-.019531 49.453125-13.738281 62.304688-36 1.429687-2.476562 1.429687-5.53125-.003907-8.007812-1.433593-2.476563-4.078125-3.996094-6.941406-3.992188zm-341.757813-97.304688c6.039063 2.648438 13.085938 1.320313 17.746094-3.34375 4.660156-4.667968 5.980469-11.714843 3.324219-17.75l-17.78125-40.679687 29.007813-16.800781 26.351562 35.511718c.441406.738282.980469 1.414063 1.597656 2.015626.214844.214843.441406.414062.679688.597656 4.234375 3.976562 10.296875 5.328125 15.816406 3.53125 5.992188-1.910156 10.265625-7.199219 10.875-13.457032l5.023438-44.320312h34.605468l4.960938 44.640625c.695312 6.566406 5.351562 12.035156 11.730468 13.761719 6.375 1.726562 13.15625-.640625 17.070313-5.960938l26.75-36.234375 29.226563 16.847657-17.855469 41.152343c-2.640625 6.039063-1.308594 13.078125 3.355469 17.730469 4.664062 4.65625 11.707031 5.976562 17.738281 3.328125l41.089843-17.914063 11.527344 20c-11.84375 2.277344-22.921875 7.503907-32.207031 15.199219-4.515625-5.402343-11.191406-8.535156-18.234375-8.550781h-16c-5.921875.019531-11.625 2.246094-16 6.238281-3.707031-3.335937-8.375-5.425781-13.335938-5.964843-24.148437-20.242188-56.179687-28.429688-87.082031-22.261719-30.902343 6.167969-57.332031 26.027343-71.859375 53.988281h-19.257812c-10.015625-20.308594-29.074219-34.65625-51.359375-38.671875l11.695312-20.382813zm198.398438 33.304688c0-4.417969 3.582031-8 8-8h16c4.417969 0 8 3.582031 8 8v80c0 4.417969-3.582031 8-8 8h-16c-4.417969 0-8-3.582031-8-8zm-56-17.761719c-4.371094-3.992187-10.074219-6.21875-16-6.238281h-16c-5.921875.019531-11.625 2.246094-16 6.238281-4.371094-3.992187-10.074219-6.21875-16-6.238281h-4.582031c24.359375-11.179688 52.492187-10.617188 76.382812 1.535156-2.878906 1.054688-5.527343 2.648438-7.800781 4.703125zm-104 25.761719h-1.808594c.578125-.878906 1.203125-1.71875 1.808594-2.574219zm16-8c0-4.417969 3.582031-8 8-8h16c4.417969 0 8 3.582031 8 8v56h-32zm48 0c0-4.417969 3.582031-8 8-8h16c4.417969 0 8 3.582031 8 8v57.390625c-2.570312-.898437-5.273438-1.371094-8-1.390625h-24zm48 0c0-4.417969 3.582031-8 8-8h16c4.417969 0 8 3.582031 8 8v80c0 4.417969-3.582031 8-8 8h-16c-4.417969 0-8-3.582031-8-8zm-255.160156 80h31.160156c4.417969 0 8-3.582031 8-8v-64c0-4.417969-3.582031-8-8-8h-31.160156c13.328125-13.074219 32.304687-18.636719 50.582031-14.820312 18.277344 3.8125 33.449219 16.496093 40.433594 33.8125 1.222656 3.027343 4.160156 5.007812 7.425781 5.007812h44.71875v32h-44.71875c-3.242188 0-6.164062 1.953125-7.402344 4.953125-1.347656 3.359375-3.03125 6.578125-5.03125 9.597656-4.378906 3.734375-8.242187 8.039063-11.480468 12.800781-22.042969 18.105469-54.195313 16.660157-74.527344-3.351562zm342.777344 95.199219c-8.050782 26.027343-23.6875 49.0625-44.914063 66.144531-1.71875 1.519531-2.703125 3.703125-2.703125 6v48.65625c0 13.253906-10.746094 24-24 24h-112c-13.253906 0-24-10.746094-24-24v-50.992188c.007812-2.15625-.859375-4.226562-2.398438-5.734374-8.953124-8.6875-30.570312-31.679688-37.808593-57.210938l-15.792969-63.09375c.082031-4.410156.75-8.789062 1.984375-13.023438 5.214844-17.832031 20.25-31.054687 38.601563-33.945312h111.414062c2.148438-.085938 4.230469.730469 5.75 2.25s2.335938 3.605469 2.25 5.75c-.027344 22.082031-17.917969 39.972656-40 40h-56v16h25.503906l2.496094 1.527344c16.5625 10.097656 30.855469 18.816406 36.242188 40.417968 2.898437 11.90625 2.898437 24.332032 0 36.238282l15.582031 3.632812c3.503906-14.375 3.503906-29.378906 0-43.753906-3.714844-15.273438-12.691407-28.75-25.359375-38.0625h1.535156c22.925781-.035156 43.511719-14.054688 51.9375-35.375 3.628906 2.171875 7.769531 3.335938 12 3.367188h16.0625c5.925781-.019532 11.628906-2.246094 16-6.238282 4.371094 3.996094 10.078125 6.222656 16 6.246094h16c10.875-.042969 20.359375-7.386719 23.121094-17.902344 2.105468 2.914063 4.0625 5.9375 5.855468 9.054688zm48.382812-79.199219c-6.402344.015625-12.761719-1.089844-18.78125-3.265625-.109375-1.042969-.414062-2.054687-.90625-2.980469-4.878906-9.921875-11.800781-18.699218-20.3125-25.753906v-63.039062c10.34375-10.6875 24.527344-16.804688 39.402344-16.984376 14.871094-.179687 29.199218 5.589844 39.796875 16.023438h-31.199219c-4.417969 0-8 3.582031-8 8v64c0 4.417969 3.582031 8 8 8h31.199219c-10.46875 10.257812-24.542969 16.003906-39.199219 16zm0 0"/><path d="m263.875 432v16c22.082031-.027344 39.972656-17.917969 40-40h-16c0 13.253906-10.746094 24-24 24zm0 0"/></svg>